name rise31.4854peak64.571fall78.6902.mot
datacolumns 19
datarows 24
range 21.60158700000000 21.63992200000000
endheader
time	ground_force1_vx	ground_force1_vy	ground_force1_vz	ground_force1_px	ground_force1_py	ground_force1_pz	ground_force2_vx	ground_force2_vy	ground_force2_vz	ground_force2_px	ground_force2_py	ground_force2_pz	ground_torque1_x	ground_torque1_y	ground_torque1_z	ground_torque2_x	ground_torque2_y	ground_torque2_z	
21.60158700000000	11.33822000000000	704.02047000000005	40.47350000000000	0.22530200000000	0.00000000000000	0.09921000000000	0.00000000000000	0.00000000000000	0.00000000000000	0.00000000000000	0.00000000000000	0.00000000000000	0.00000000000000	15.99070400000000	0.00000000000000	0.00000000000000	0.00000000000000	0.00000000000000	
21.60325300000000	10.78746700000000	704.86739200000000	40.49727500000000	0.22459900000000	0.00000000000000	0.09918800000000	0.00000000000000	0.00000000000000	0.00000000000000	0.00000000000000	0.00000000000000	0.00000000000000	0.00000000000000	16.08391700000000	0.00000000000000	0.00000000000000	0.00000000000000	0.00000000000000	
21.60492000000000	10.22096400000000	705.73802100000000	40.52643200000000	0.22387900000000	0.00000000000000	0.09916700000000	0.00000000000000	0.00000000000000	0.00000000000000	0.00000000000000	0.00000000000000	0.00000000000000	0.00000000000000	16.18223000000000	0.00000000000000	0.00000000000000	0.00000000000000	0.00000000000000	
21.60658700000000	9.63846500000000	706.63300600000002	40.56095100000000	0.22314200000000	0.00000000000000	0.09914600000000	0.00000000000000	0.00000000000000	0.00000000000000	0.00000000000000	0.00000000000000	0.00000000000000	0.00000000000000	16.28552400000000	0.00000000000000	0.00000000000000	0.00000000000000	0.00000000000000	
21.60825500000000	9.03978300000000	707.55307300000004	40.60081400000000	0.22238400000000	0.00000000000000	0.09912700000000	0.00000000000000	0.00000000000000	0.00000000000000	0.00000000000000	0.00000000000000	0.00000000000000	0.00000000000000	16.39367300000000	0.00000000000000	0.00000000000000	0.00000000000000	0.00000000000000	
21.60991800000000	8.42478900000000	708.49902299999997	40.64600300000000	0.22160600000000	0.00000000000000	0.09910800000000	0.00000000000000	0.00000000000000	0.00000000000000	0.00000000000000	0.00000000000000	0.00000000000000	0.00000000000000	16.50654100000000	0.00000000000000	0.00000000000000	0.00000000000000	0.00000000000000	
21.61158300000000	7.79341400000000	709.47171900000001	40.69650300000000	0.22080400000000	0.00000000000000	0.09909000000000	0.00000000000000	0.00000000000000	0.00000000000000	0.00000000000000	0.00000000000000	0.00000000000000	0.00000000000000	16.62398700000000	0.00000000000000	0.00000000000000	0.00000000000000	0.00000000000000	
21.61324900000000	7.14564800000000	710.47208300000000	40.75229900000000	0.21997800000000	0.00000000000000	0.09907400000000	0.00000000000000	0.00000000000000	0.00000000000000	0.00000000000000	0.00000000000000	0.00000000000000	0.00000000000000	16.74586200000000	0.00000000000000	0.00000000000000	0.00000000000000	0.00000000000000	
21.61491600000000	6.48154700000000	711.50108399999999	40.81337900000000	0.21912600000000	0.00000000000000	0.09905800000000	0.00000000000000	0.00000000000000	0.00000000000000	0.00000000000000	0.00000000000000	0.00000000000000	0.00000000000000	16.87201100000000	0.00000000000000	0.00000000000000	0.00000000000000	0.00000000000000	
21.61658300000000	5.80122500000000	712.55973300000005	40.87973000000000	0.21824800000000	0.00000000000000	0.09904400000000	0.00000000000000	0.00000000000000	0.00000000000000	0.00000000000000	0.00000000000000	0.00000000000000	0.00000000000000	17.00227200000000	0.00000000000000	0.00000000000000	0.00000000000000	0.00000000000000	
21.61825100000000	5.10486100000000	713.64907200000005	40.95134500000000	0.21734100000000	0.00000000000000	0.09903100000000	0.00000000000000	0.00000000000000	0.00000000000000	0.00000000000000	0.00000000000000	0.00000000000000	0.00000000000000	17.13647700000000	0.00000000000000	0.00000000000000	0.00000000000000	0.00000000000000	
21.61992000000000	4.39269500000000	714.77016600000002	41.02821300000000	0.21640700000000	0.00000000000000	0.09901900000000	0.00000000000000	0.00000000000000	0.00000000000000	0.00000000000000	0.00000000000000	0.00000000000000	0.00000000000000	17.27445200000000	0.00000000000000	0.00000000000000	0.00000000000000	0.00000000000000	
21.62158800000000	3.66502900000000	715.92409199999997	41.11033000000000	0.21544300000000	0.00000000000000	0.09900900000000	0.00000000000000	0.00000000000000	0.00000000000000	0.00000000000000	0.00000000000000	0.00000000000000	0.00000000000000	17.41601900000000	0.00000000000000	0.00000000000000	0.00000000000000	0.00000000000000	
21.62325500000000	2.92222700000000	717.11193000000003	41.19769000000000	0.21445000000000	0.00000000000000	0.09900000000000	0.00000000000000	0.00000000000000	0.00000000000000	0.00000000000000	0.00000000000000	0.00000000000000	0.00000000000000	17.56099400000000	0.00000000000000	0.00000000000000	0.00000000000000	0.00000000000000	
21.62492100000000	2.16471400000000	718.33475499999997	41.29029100000000	0.21342800000000	0.00000000000000	0.09899300000000	0.00000000000000	0.00000000000000	0.00000000000000	0.00000000000000	0.00000000000000	0.00000000000000	0.00000000000000	17.70918900000000	0.00000000000000	0.00000000000000	0.00000000000000	0.00000000000000	
21.62658900000000	1.39297400000000	719.59362299999998	41.38813200000000	0.21237700000000	0.00000000000000	0.09898700000000	0.00000000000000	0.00000000000000	0.00000000000000	0.00000000000000	0.00000000000000	0.00000000000000	0.00000000000000	17.86041200000000	0.00000000000000	0.00000000000000	0.00000000000000	0.00000000000000	
21.62825300000000	0.60755100000000	720.88956599999995	41.49121300000000	0.21129600000000	0.00000000000000	0.09898300000000	0.00000000000000	0.00000000000000	0.00000000000000	0.00000000000000	0.00000000000000	0.00000000000000	0.00000000000000	18.01446600000000	0.00000000000000	0.00000000000000	0.00000000000000	0.00000000000000	
21.62991900000000	-0.19095500000000	722.22357499999998	41.59953700000000	0.21018800000000	0.00000000000000	0.09897900000000	0.00000000000000	0.00000000000000	0.00000000000000	0.00000000000000	0.00000000000000	0.00000000000000	0.00000000000000	18.17115300000000	0.00000000000000	0.00000000000000	0.00000000000000	0.00000000000000	
21.63158300000000	-1.00188900000000	723.59659899999997	41.71311100000000	0.20905100000000	0.00000000000000	0.09897800000000	0.00000000000000	0.00000000000000	0.00000000000000	0.00000000000000	0.00000000000000	0.00000000000000	0.00000000000000	18.33026800000000	0.00000000000000	0.00000000000000	0.00000000000000	0.00000000000000	
21.63325200000000	-1.82454300000000	725.00952600000005	41.83194000000000	0.20788800000000	0.00000000000000	0.09897700000000	0.00000000000000	0.00000000000000	0.00000000000000	0.00000000000000	0.00000000000000	0.00000000000000	0.00000000000000	18.49160700000000	0.00000000000000	0.00000000000000	0.00000000000000	0.00000000000000	
21.63491600000000	-2.65815700000000	726.46317799999997	41.95603400000000	0.20669900000000	0.00000000000000	0.09897800000000	0.00000000000000	0.00000000000000	0.00000000000000	0.00000000000000	0.00000000000000	0.00000000000000	0.00000000000000	18.65496300000000	0.00000000000000	0.00000000000000	0.00000000000000	0.00000000000000	
21.63659000000000	-3.50192200000000	727.95830000000001	42.08540500000000	0.20548600000000	0.00000000000000	0.09898000000000	0.00000000000000	0.00000000000000	0.00000000000000	0.00000000000000	0.00000000000000	0.00000000000000	0.00000000000000	18.82012500000000	0.00000000000000	0.00000000000000	0.00000000000000	0.00000000000000	
21.63825400000000	-4.35498400000000	729.49555299999997	42.22006500000000	0.20425000000000	0.00000000000000	0.09898300000000	0.00000000000000	0.00000000000000	0.00000000000000	0.00000000000000	0.00000000000000	0.00000000000000	0.00000000000000	18.98688200000000	0.00000000000000	0.00000000000000	0.00000000000000	0.00000000000000	
21.63992200000000	-5.21644500000000	731.07550000000003	42.36003200000000	0.20299300000000	0.00000000000000	0.09898700000000	0.00000000000000	0.00000000000000	0.00000000000000	0.00000000000000	0.00000000000000	0.00000000000000	0.00000000000000	19.15502200000000	0.00000000000000	0.00000000000000	0.00000000000000	0.00000000000000	
